# xmcd CD database file
#
# Track frame offsets:
#	150
#	10092
#	23020
#	36162
#	47017
#	60705
#	74642
#	84057
#	96950
#	111497
#	123135
#	136322
#
# Disc length: 1999 seconds
#
# Revision: 2
# Processed by: cddbd v1.5.2PL0 Copyright (c) Steve Scherf et al.
# Submitted via: CDex 1.70beta2
#
DISCID=9907cd0c
DTITLE=Smoky Mountain Hymns - Volume 2
DYEAR=1990
DGENRE=Christian Rock
TTITLE0=Craig Duncan (Hammered Dulcimer) - Send the Light
TTITLE1=Ron Wall (Auto Harp) - Church in the Wildwood
TTITLE2=Eric Silver (Mandolin) - Just a Closer Walk with Thee
TTITLE3=Craig Duncan (Hammered Dulcimer) - Jesus Loves Me
TTITLE4=Jack Jezzro (Dobro Guitar) - The Old Rugged Cross
TTITLE5=Larry Beaird (Acoustic Guitar) - Mansion over the Hilltop
TTITLE6=Craig Duncan (Hammered Dulcimer) - Power in the Blood
TTITLE7=Alisa Jones Wall (Hammered Dulcimer), Ron Wall (Auto Harp) - When the Roll is called up Yonder
TTITLE8=Jack Jezzro (Dobro Guitar) - Count Your Blessings
TTITLE9=Craig Duncan (Hammered Dulcimer) - Near the Cross
TTITLE10=Alisa Jones Wall (Hammered Dulcimer) - Love Lifted Me
TTITLE11=Alisa Jones Wall (Hammered Dulcimer), Ron Wall (Auto Harp) - Leaning on the Everlasting Arms
EXTD=YEAR: 1990
EXTT0=
EXTT1=
EXTT2=
EXTT3=
EXTT4=
EXTT5=
EXTT6=
EXTT7=
EXTT8=
EXTT9=
EXTT10=
EXTT11=
PLAYORDER=
